<?xml version="1.0" encoding="UTF-8"?>
<svg width="32" height="32" viewBox="0 0 32 32" fill="none" xmlns="http://www.w3.org/2000/svg">
  <path d="M16 2L4 7V15C4 22.1797 9.12031 28.9203 16 31C22.8797 28.9203 28 22.1797 28 15V7L16 2Z" fill="#2196F3"/>
  <path d="M16 8C14.3431 8 13 9.34315 13 11V13H19V11C19 9.34315 17.6569 8 16 8ZM11 13V11C11 8.23858 13.2386 6 16 6C18.7614 6 21 8.23858 21 11V13H22C22.5523 13 23 13.4477 23 14V21C23 21.5523 22.5523 22 22 22H10C9.44772 22 9 21.5523 9 21V14C9 13.4477 9.44772 13 10 13H11Z" fill="white"/>
</svg>