<?xml version="1.0" encoding="UTF-8"?>
<svg width="32" height="32" viewBox="0 0 32 32" fill="none" xmlns="http://www.w3.org/2000/svg">
  <path d="M16 4C13.8783 4 11.8434 4.84285 10.3431 6.34315C8.84285 7.84344 8 9.87827 8 12V16H7C6.44772 16 6 16.4477 6 17V25C6 25.5523 6.44772 26 7 26H25C25.5523 26 26 25.5523 26 25V17C26 16.4477 25.5523 16 25 16H24V12C24 9.87827 23.1571 7.84344 21.6569 6.34315C20.1566 4.84285 18.1217 4 16 4Z" fill="#2196F3"/>
  <path d="M16 12C17.1046 12 18 12.8954 18 14V16C18 17.1046 17.1046 18 16 18C14.8954 18 14 17.1046 14 16V14C14 12.8954 14.8954 12 16 12Z" fill="white"/>
  <path d="M16 8C14.8954 8 14 8.89543 14 10H18C18 8.89543 17.1046 8 16 8Z" fill="white"/>
  <path d="M16 18V22" stroke="white" stroke-width="2" stroke-linecap="round"/>
</svg>